<svg width="83" height="83" viewBox="0 0 83 83" fill="none" xmlns="http://www.w3.org/2000/svg">
<path d="M41.0722 0C44.845 0 47.9009 3.05591 47.9009 6.82864C47.9009 10.6014 44.845 13.6573 41.0722 13.6573C37.2995 13.6573 34.2436 10.6014 34.2436 6.82864C34.2436 3.05591 37.2995 0 41.0722 0ZM45.2411 26.9121C43.2101 23.8248 38.9407 23.8248 36.9097 26.9121C32.2503 33.9923 25.3525 45.5117 25.3525 51.6927C25.3525 61.0239 32.3887 68.5882 41.0722 68.5882C49.7558 68.5882 56.792 61.0239 56.792 51.6927C56.792 45.5117 49.8941 33.9923 45.2411 26.9121Z" fill="#FFCC00"/>
<path d="M82.1449 41.9275C82.1449 26.4216 73.5619 12.3996 59.7412 5.33834C58.056 4.4769 55.9936 5.14342 55.1384 6.82857C54.277 8.51372 54.9435 10.5761 56.6287 11.4313C68.1481 17.3168 75.2974 29.0059 75.2974 41.9275C75.2974 47.6872 73.8637 53.1137 71.3423 57.8799C71.6881 56.0376 71.8768 54.1386 71.8768 52.1957C71.8768 44.6816 69.1415 37.4443 64.1741 31.8166C62.9228 30.4018 60.7598 30.2635 59.345 31.5148C57.9303 32.7661 57.7919 34.9291 59.0432 36.3439C62.904 40.7203 65.0293 46.3479 65.0293 52.1894C65.0293 64.9852 54.9435 75.4734 42.2986 76.1148C41.8899 76.1273 41.4812 76.1462 41.0662 76.1462C40.6512 76.1462 40.2424 76.1273 39.8337 76.1148C27.1951 75.4734 17.103 64.9852 17.103 52.1894C17.103 46.6812 18.9202 41.5062 22.3534 37.2179C23.5355 35.7403 23.2966 33.5898 21.8252 32.4077C20.3476 31.2256 18.1971 31.4645 17.015 32.9359C12.6575 38.3749 10.2555 45.2098 10.2555 52.1894C10.2555 54.1323 10.4442 56.025 10.79 57.8736C8.26856 53.1074 6.83493 47.6809 6.83493 41.9212C6.83493 28.9996 13.9905 17.3105 25.5036 11.425C27.1888 10.5636 27.8553 8.50115 26.9939 6.82228C26.1324 5.13713 24.07 4.47061 22.3911 5.33205C8.58296 12.3996 0 26.4216 0 41.9275C0 64.042 17.5746 82.126 39.4879 82.9623C40.0098 82.9874 40.538 83 41.0724 83C41.6069 83 42.1288 82.9874 42.657 82.9623C64.5703 82.126 82.1449 64.042 82.1449 41.9275Z" fill="#25E899"/>
</svg>
